<?xml version="1.0" encoding="UTF-8" ?>
<!DOCTYPE svg PUBLIC "-//W3C//DTD SVG 1.1//EN" "http://www.w3.org/Graphics/SVG/1.1/DTD/svg11.dtd">
<svg width="233pt" height="54pt" viewBox="0 0 233 54" version="1.1" xmlns="http://www.w3.org/2000/svg">
<g id="#030303ff">
<path fill="#030303" opacity="1.00" d=" M 171.87 9.00 C 172.43 9.00 173.55 9.00 174.12 8.99 C 174.10 10.47 174.07 11.95 174.04 13.42 C 175.76 13.33 177.96 12.39 179.14 14.20 C 180.12 16.28 180.14 19.56 177.80 20.73 C 175.82 20.93 173.83 20.84 171.85 20.92 C 171.88 16.95 171.87 12.98 171.87 9.00 M 174.00 15.02 C 174.02 17.04 174.09 19.94 176.97 18.88 C 178.41 16.43 176.63 14.38 174.00 15.02 Z" />
<path fill="#030303" opacity="1.00" d=" M 115.98 13.92 C 116.05 12.43 115.73 9.82 118.00 10.06 C 121.23 9.99 125.60 9.03 127.55 12.39 C 131.68 18.22 135.74 24.11 139.52 30.17 C 139.55 23.42 139.51 16.67 139.55 9.92 C 141.69 9.84 143.83 9.82 145.98 9.87 C 146.03 17.58 145.96 25.28 146.04 32.98 C 145.87 34.45 146.31 36.16 145.45 37.47 C 141.68 38.74 136.51 38.58 134.59 34.46 C 130.54 28.42 126.22 22.57 122.44 16.36 C 122.87 23.53 122.75 30.72 122.68 37.91 C 120.47 37.99 118.26 38.00 116.05 37.95 C 115.96 29.94 116.02 21.93 115.98 13.92 Z" />
<path fill="#030303" opacity="1.00" d=" M 195.01 11.02 C 195.27 11.04 195.79 11.06 196.05 11.07 C 196.38 12.51 200.67 13.71 198.19 14.68 C 194.86 15.55 197.00 19.77 199.46 20.13 C 198.59 20.35 196.83 20.80 195.95 21.02 C 193.73 19.97 194.77 17.28 194.53 15.34 C 194.05 15.09 193.08 14.59 192.59 14.34 C 193.53 13.33 194.33 12.22 195.01 11.02 Z" />
<path fill="#030303" opacity="1.00" d=" M 148.61 12.67 C 151.87 12.50 151.60 16.27 152.63 18.36 C 153.19 16.56 153.72 14.76 154.24 12.94 C 154.78 12.99 155.85 13.09 156.38 13.14 C 156.84 14.96 157.31 16.76 157.78 18.58 C 158.73 16.34 158.57 12.78 161.73 12.60 C 161.01 15.40 160.15 18.17 159.35 20.95 C 158.40 20.93 157.47 20.92 156.53 20.90 C 156.08 19.27 155.62 17.64 155.18 16.00 C 154.71 17.67 154.25 19.35 153.79 21.02 C 153.12 21.00 151.79 20.97 151.12 20.95 C 150.27 18.19 149.39 15.45 148.61 12.67 Z" />
<path fill="#030303" opacity="1.00" d=" M 162.38 16.99 C 162.06 13.68 165.58 12.88 168.11 12.65 C 169.29 14.22 170.07 16.02 170.40 17.96 C 168.53 17.99 166.67 18.01 164.80 18.03 L 164.75 18.96 C 166.51 18.98 168.28 19.01 170.04 19.05 C 169.44 23.04 161.47 21.10 162.38 16.99 M 165.30 15.83 C 166.52 16.71 167.26 16.49 167.50 15.17 C 166.27 14.29 165.54 14.51 165.30 15.83 Z" />
<path fill="#030303" opacity="1.00" d=" M 186.65 16.00 C 186.20 13.49 188.94 12.65 190.92 12.97 C 191.68 13.78 192.00 14.87 192.49 15.84 C 191.43 15.59 189.31 15.09 188.25 14.84 C 189.80 16.16 192.64 16.71 192.76 19.14 C 191.13 22.08 186.85 21.52 185.90 18.30 C 187.64 18.55 189.39 18.84 191.15 19.04 C 189.64 18.05 187.96 17.26 186.65 16.00 Z" />
<path fill="#030303" opacity="1.00" d=" M 199.71 16.06 C 200.43 11.45 208.71 12.05 208.04 17.04 C 208.28 20.48 204.61 21.09 202.01 21.30 C 200.79 19.81 198.93 18.23 199.71 16.06 M 202.41 15.52 C 200.64 17.76 203.22 19.40 205.31 19.46 C 205.54 17.82 205.54 16.16 205.31 14.52 C 204.59 14.77 203.13 15.27 202.41 15.52 Z" />
<path fill="#030303" opacity="1.00" d=" M 209.84 13.00 C 211.74 13.24 213.88 12.81 215.46 14.15 C 214.23 14.63 213.12 15.28 212.14 16.10 C 211.93 17.72 211.96 19.37 211.92 21.00 C 211.41 21.00 210.38 21.00 209.87 21.00 C 209.87 18.33 209.86 15.67 209.84 13.00 Z" />
<path fill="#030303" opacity="1.00" d=" M 215.59 17.05 C 215.50 15.23 217.07 14.02 218.00 12.67 C 219.54 13.13 221.55 12.89 222.64 14.31 C 223.06 15.45 223.40 16.62 223.66 17.82 C 221.50 17.96 219.30 18.00 217.23 18.67 C 219.14 18.93 221.07 19.03 223.00 19.13 C 223.00 19.58 222.98 20.48 222.98 20.93 C 221.32 20.98 219.66 21.04 218.00 21.11 C 216.95 19.94 215.30 18.86 215.59 17.05 M 218.50 15.17 C 218.74 16.49 219.48 16.71 220.70 15.83 C 220.45 14.51 219.72 14.29 218.50 15.17 Z" />
<path fill="#030303" opacity="1.00" d=" M 181.05 14.92 C 182.45 14.95 183.86 15.02 185.27 15.14 C 186.74 17.90 182.48 16.74 181.02 17.07 C 181.03 16.53 181.04 15.45 181.05 14.92 Z" />
<path fill="#030303" opacity="1.00" d=" M 11.93 18.97 C 18.18 14.59 26.10 18.17 33.10 17.27 C 33.11 18.60 33.11 19.94 33.11 21.28 C 32.24 21.23 30.50 21.15 29.63 21.10 C 30.48 23.56 30.58 26.62 28.39 28.42 C 24.48 31.72 19.08 30.61 14.39 30.64 C 15.16 32.03 16.11 33.47 17.93 33.17 C 22.25 33.53 27.00 32.70 30.88 35.12 C 33.82 36.98 33.26 41.74 30.40 43.42 C 25.86 46.28 20.12 46.23 14.97 45.64 C 12.15 45.22 8.33 44.37 7.74 41.05 C 7.46 38.82 9.50 37.40 10.85 35.98 C 10.12 34.98 9.25 34.05 8.79 32.88 C 8.74 31.14 10.23 29.90 11.09 28.54 C 9.05 25.63 8.65 21.16 11.93 18.97 M 16.51 21.53 C 15.16 23.00 15.32 25.77 17.32 26.59 C 19.62 27.59 23.89 27.26 24.02 24.06 C 24.49 20.24 18.83 19.48 16.51 21.53 M 13.89 40.09 C 17.39 43.18 23.95 43.34 26.51 38.99 C 22.84 36.54 16.45 35.68 13.89 40.09 Z" />
<path fill="#030303" opacity="1.00" d=" M 41.97 18.01 C 46.35 16.18 51.59 16.15 55.96 17.98 C 59.79 19.64 62.28 25.24 59.88 28.78 C 54.23 29.35 48.53 28.77 42.86 29.09 C 43.69 30.79 44.14 33.07 46.20 33.70 C 50.56 35.14 55.19 33.88 59.50 32.86 C 59.46 34.26 59.41 35.67 59.36 37.07 C 53.46 38.56 46.89 39.49 41.16 36.92 C 33.77 33.44 34.59 21.04 41.97 18.01 M 42.91 25.46 C 46.72 25.56 50.53 25.56 54.33 25.49 C 53.70 23.30 52.75 20.65 50.02 20.53 C 46.58 19.65 43.68 22.27 42.91 25.46 Z" />
<path fill="#030303" opacity="1.00" d=" M 66.54 17.15 C 68.50 17.10 70.46 17.07 72.41 17.07 C 72.42 17.82 72.43 19.32 72.43 20.07 C 75.25 18.11 78.45 16.35 82.02 16.67 C 85.79 16.45 90.05 18.90 90.35 22.96 C 90.68 27.97 90.38 33.00 90.44 38.02 C 88.16 38.04 85.88 38.04 83.60 38.03 C 83.16 33.10 84.31 27.94 82.90 23.16 C 80.60 19.71 76.22 22.04 73.73 24.00 C 73.75 28.63 73.75 33.27 73.67 37.91 C 71.31 38.04 68.94 38.05 66.58 37.98 C 66.49 31.04 66.54 24.09 66.54 17.15 Z" />
<path fill="#030303" opacity="1.00" d=" M 95.73 24.94 C 100.38 24.86 105.15 24.17 109.73 25.18 C 109.89 26.52 110.00 27.86 110.06 29.20 C 105.33 29.30 100.60 29.28 95.87 29.23 C 95.82 27.80 95.77 26.37 95.73 24.94 Z" />
<path fill="#030303" opacity="1.00" d=" M 149.89 24.98 C 155.28 25.83 160.72 25.12 166.13 25.58 C 166.15 27.53 166.19 29.48 166.24 31.42 C 163.60 35.24 159.45 38.25 154.64 38.09 C 152.85 38.01 151.75 36.54 150.67 35.32 C 150.93 31.85 150.28 28.42 149.89 24.98 Z" />
</g>
</svg>
