<?xml version="1.0" encoding="UTF-8" ?>
<!DOCTYPE svg PUBLIC "-//W3C//DTD SVG 1.1//EN" "http://www.w3.org/Graphics/SVG/1.1/DTD/svg11.dtd">
<svg width="233pt" height="54pt" viewBox="0 0 233 54" version="1.1" xmlns="http://www.w3.org/2000/svg">
<path fill="#ffffff" d=" M 0.00 0.00 L 233.00 0.00 L 233.00 54.00 L 0.00 54.00 L 0.00 0.00 Z" />
<path fill="#5bb300" d=" M 123.28 10.18 C 126.31 8.74 130.69 8.59 133.57 10.35 C 138.64 17.66 143.13 25.44 147.27 33.32 C 146.88 25.34 146.76 17.30 147.27 9.33 C 149.39 8.88 151.61 8.85 153.73 9.32 C 154.23 19.80 154.09 30.37 153.81 40.87 C 150.67 42.91 144.82 42.89 142.88 39.08 C 138.45 31.66 133.77 24.38 129.74 16.73 C 130.18 25.18 130.03 33.65 129.89 42.11 C 127.63 42.19 125.37 42.19 123.12 42.12 C 123.05 31.48 122.68 20.79 123.28 10.18 Z" />
<path fill="#5bb300" d=" M 179.18 9.92 C 179.60 9.92 180.44 9.92 180.86 9.92 C 180.82 11.70 180.77 13.48 180.71 15.25 C 182.07 14.92 183.60 14.00 184.98 14.84 C 186.06 16.07 186.10 17.79 186.39 19.32 C 188.36 19.05 191.65 17.44 192.53 20.27 C 191.41 20.29 189.15 20.33 188.03 20.35 L 187.97 19.11 C 186.54 21.24 185.74 23.87 183.57 25.43 C 182.07 25.11 180.58 24.79 179.08 24.50 C 179.26 19.64 179.17 14.78 179.18 9.92 Z" />
<path fill="#5bb300" d=" M 200.99 11.88 L 202.38 12.02 C 202.34 12.65 202.27 13.91 202.24 14.54 C 203.01 14.68 204.54 14.95 205.31 15.08 C 204.29 15.63 203.27 16.17 202.25 16.70 C 202.73 19.32 200.99 24.15 205.18 23.92 C 204.37 24.54 203.59 25.19 202.82 25.86 C 199.90 23.35 201.26 19.19 200.70 15.85 C 198.80 16.85 196.74 16.55 194.75 16.04 C 194.21 19.30 199.59 19.33 198.67 22.77 C 198.14 26.00 193.95 25.87 192.34 23.50 C 193.87 22.92 197.35 24.72 197.36 22.05 C 196.08 20.43 193.11 19.59 193.40 17.14 C 193.23 15.71 194.74 15.12 195.60 14.31 C 197.30 14.71 199.01 15.02 200.75 15.25 C 200.81 14.41 200.93 12.72 200.99 11.88 Z" />
<path fill="#5bb300" d=" M 160.02 25.65 C 159.49 21.74 156.61 17.56 158.35 13.66 C 159.53 16.64 160.11 19.81 160.58 22.96 L 161.07 20.03 C 162.69 21.87 162.47 24.63 160.02 25.65 Z" />
<path fill="#5bb300" d=" M 163.24 13.64 C 164.47 16.60 165.14 19.74 165.86 22.85 C 166.61 19.76 166.58 16.17 169.02 13.80 C 168.66 17.44 167.97 21.11 166.60 24.51 C 166.19 24.80 165.37 25.37 164.96 25.66 C 164.35 22.91 163.92 20.14 163.53 17.35 C 163.44 18.22 163.25 19.94 163.15 20.81 C 162.57 20.09 162.00 19.37 161.44 18.65 C 162.02 16.98 162.61 15.30 163.24 13.64 Z" />
<path fill="#5bb300" d=" M 172.48 14.63 C 175.75 13.38 177.82 17.23 177.12 20.03 C 175.13 20.41 173.09 20.41 171.09 20.55 C 171.59 24.07 174.97 23.65 177.60 23.51 C 176.36 24.27 175.12 25.03 173.90 25.80 C 169.07 24.55 168.53 17.09 172.48 14.63 Z" />
<path fill="#5bb300" d=" M 208.49 14.49 C 215.07 13.14 215.39 25.51 209.06 25.37 C 204.48 24.08 204.57 16.52 208.49 14.49 Z" />
<path fill="#5bb300" d=" M 215.84 13.71 C 216.09 14.15 216.60 15.04 216.85 15.48 C 218.39 14.40 219.94 13.98 220.66 16.18 C 219.89 16.26 218.37 16.41 217.61 16.48 C 217.02 19.53 217.04 22.64 216.82 25.73 C 214.00 22.55 215.86 17.60 215.84 13.71 Z" />
<path fill="#5bb300" d=" M 224.04 25.35 C 218.83 24.14 219.70 13.50 225.51 14.49 C 227.85 15.36 227.72 18.15 228.10 20.17 C 226.00 20.29 223.90 20.38 221.81 20.50 C 222.39 23.96 225.77 23.71 228.45 23.57 C 227.07 24.36 225.75 25.58 224.04 25.35 Z" />
<path fill="#ffffff" d=" M 171.06 18.90 C 171.68 17.83 172.34 16.80 173.05 15.80 C 174.86 15.72 175.45 17.52 176.28 18.76 C 174.54 18.84 172.80 18.88 171.06 18.90 Z" />
<path fill="#ffffff" d=" M 207.88 23.09 C 206.70 20.21 206.95 15.34 211.16 15.81 C 211.57 17.97 212.38 20.27 211.52 22.43 C 210.62 23.92 209.40 24.14 207.88 23.09 Z" />
<path fill="#ffffff" d=" M 221.72 18.80 C 222.49 17.74 223.24 16.66 224.07 15.65 C 225.74 15.94 226.20 17.60 226.95 18.86 C 225.20 18.88 223.46 18.85 221.72 18.80 Z" />
<path fill="#5bb300" d=" M 13.85 22.99 C 15.25 18.35 20.68 16.69 25.05 17.06 C 29.30 17.54 33.58 17.58 37.85 17.57 C 37.80 19.17 37.75 20.77 37.70 22.37 C 36.88 22.31 35.26 22.18 34.44 22.12 C 35.10 24.88 35.40 28.10 33.28 30.33 C 29.87 33.96 24.33 33.87 19.82 32.82 C 19.59 33.45 19.13 34.70 18.90 35.32 C 24.06 37.36 30.07 35.27 34.96 38.13 C 38.35 40.06 38.52 45.14 35.74 47.67 C 31.90 51.32 26.05 51.49 21.06 51.16 C 17.83 50.72 13.58 50.25 12.10 46.83 C 10.66 43.98 13.26 41.47 15.00 39.53 C 14.30 38.40 13.11 37.42 12.97 36.02 C 12.56 33.86 14.34 32.28 15.41 30.64 C 13.93 28.39 12.83 25.68 13.85 22.99 Z" />
<path fill="#5bb300" d=" M 48.85 17.91 C 52.89 16.59 57.55 16.52 61.42 18.43 C 65.92 20.52 68.03 26.62 66.04 31.05 C 60.15 31.60 54.20 31.01 48.29 31.40 C 49.15 33.44 49.55 36.17 51.90 37.07 C 56.31 38.73 61.04 37.09 65.41 36.09 C 65.26 37.90 66.19 40.93 63.63 41.35 C 58.25 42.77 52.23 43.20 47.00 40.98 C 38.35 36.44 39.50 21.02 48.85 17.91 Z" />
<path fill="#5bb300" d=" M 72.74 17.47 C 75.34 17.33 79.95 16.27 79.22 20.54 C 82.49 17.92 86.74 16.10 90.97 17.31 C 94.65 17.94 97.30 21.37 97.37 25.04 C 97.62 30.75 97.45 36.47 97.38 42.19 C 95.03 42.23 92.68 42.18 90.34 42.01 C 90.07 36.66 90.59 31.29 90.05 25.96 C 89.84 23.23 86.54 21.63 84.17 22.79 C 82.62 23.57 81.31 24.72 79.97 25.79 C 80.00 31.24 80.09 36.70 79.88 42.14 C 77.52 42.21 75.16 42.19 72.81 42.09 C 72.65 33.89 72.77 25.68 72.74 17.47 Z" />
<path fill="#ffffff" d=" M 181.15 17.08 C 185.14 13.34 186.22 22.47 183.04 23.98 C 180.23 22.79 180.48 19.52 181.15 17.08 Z" />
<path fill="#ffffff" d=" M 48.37 27.21 C 49.12 24.16 51.28 20.95 54.85 21.45 C 58.09 21.37 59.64 24.45 60.12 27.21 C 56.20 27.29 52.29 27.29 48.37 27.21 Z" />
<path fill="#ffffff" d=" M 21.31 22.36 C 23.70 20.50 28.60 21.41 28.61 24.97 C 29.11 28.35 24.84 29.83 22.22 28.68 C 19.50 27.93 19.17 23.94 21.31 22.36 Z" />
<path fill="#5bb300" d=" M 102.80 26.62 C 107.67 26.49 112.54 26.50 117.41 26.57 C 117.39 28.28 117.35 29.99 117.26 31.69 C 112.51 31.75 107.75 31.78 103.00 31.65 C 102.90 29.98 102.83 28.30 102.80 26.62 Z" />
<path fill="#5bb300" d=" M 159.24 30.23 C 161.54 28.95 164.43 29.69 166.98 29.49 C 168.98 29.52 172.23 29.24 172.37 32.03 C 172.43 37.87 166.71 43.01 160.99 42.92 C 157.41 42.72 158.42 38.35 158.23 35.95 C 158.49 34.10 157.72 31.62 159.24 30.23 Z" />
<path fill="#ffffff" d=" M 19.91 46.07 C 17.30 44.82 19.95 42.19 20.80 40.60 C 24.07 40.65 27.35 40.93 30.52 41.77 C 30.00 43.27 30.34 45.63 28.50 46.28 C 25.79 47.27 22.52 47.41 19.91 46.07 Z" />
</svg>
