<?xml version="1.0" encoding="UTF-8" ?>
<!DOCTYPE svg PUBLIC "-//W3C//DTD SVG 1.1//EN" "http://www.w3.org/Graphics/SVG/1.1/DTD/svg11.dtd">
<svg width="1024pt" height="500pt" viewBox="0 0 1024 500" version="1.1" xmlns="http://www.w3.org/2000/svg">
<g id="#030303ff">
<path fill="#030303" opacity="1.00" d=" M 479.56 55.94 C 499.38 55.93 519.19 55.93 539.01 55.95 C 564.91 112.74 590.80 169.54 616.70 226.33 C 618.27 229.64 619.52 233.14 621.56 236.21 C 621.56 194.15 621.56 152.10 621.56 110.04 C 621.42 100.67 621.20 91.21 619.15 82.03 C 617.81 75.78 614.37 69.62 608.63 66.47 C 605.20 64.46 601.17 64.15 597.31 63.80 C 597.36 61.24 597.36 58.67 597.31 56.10 C 615.81 55.77 634.33 55.95 652.84 56.01 C 652.81 58.66 652.81 61.31 652.82 63.96 C 648.41 65.19 643.81 66.27 640.02 68.97 C 636.33 71.75 634.64 76.30 633.41 80.59 C 630.81 90.48 631.08 100.83 630.84 110.97 C 630.80 192.32 630.80 273.66 630.84 355.01 C 629.33 354.96 627.84 354.91 626.35 354.86 C 593.21 283.06 559.66 211.45 526.36 139.72 C 522.01 130.46 517.82 121.13 513.35 111.93 C 513.41 167.99 513.36 224.04 513.38 280.10 C 513.58 292.35 512.71 304.69 514.53 316.86 C 515.58 324.25 518.04 331.99 524.16 336.76 C 528.15 340.47 533.75 341.30 539.00 341.05 C 539.00 343.71 539.00 346.39 539.00 349.06 C 519.19 349.06 499.38 349.07 479.57 349.06 C 479.55 346.38 479.56 343.71 479.57 341.04 C 487.09 340.91 495.37 338.10 498.98 330.99 C 503.90 321.15 504.03 309.79 504.28 299.03 C 504.35 232.02 504.27 165.02 504.32 98.01 C 504.26 94.94 504.76 91.66 503.20 88.86 C 499.94 82.26 497.30 75.21 492.57 69.48 C 489.42 65.62 484.31 64.44 479.60 63.95 C 479.55 61.28 479.55 58.61 479.56 55.94 Z" />
<path fill="#030303" opacity="1.00" d=" M 754.99 108.00 C 760.99 108.00 766.99 108.00 773.00 108.00 C 773.05 123.52 772.90 139.05 773.08 154.57 C 775.62 150.49 778.17 145.65 783.13 144.19 C 787.91 143.01 792.05 146.86 794.43 150.58 C 799.61 159.09 801.02 169.26 801.59 179.03 C 802.18 193.51 800.94 208.52 794.74 221.80 C 791.95 227.46 786.90 233.37 780.00 233.02 C 774.97 232.98 771.43 228.92 768.85 225.07 C 765.91 227.75 764.02 231.81 760.18 233.32 C 760.07 196.25 760.17 159.17 760.13 122.10 C 760.04 117.92 760.30 111.72 755.02 110.69 C 755.01 110.02 755.00 108.68 754.99 108.00 M 779.17 154.25 C 775.28 156.67 772.62 161.40 772.97 166.03 C 773.05 180.38 772.94 194.74 773.03 209.10 C 773.19 213.98 773.13 219.11 775.41 223.57 C 776.28 225.35 777.88 227.07 780.03 227.07 C 782.74 226.92 784.38 224.33 785.13 221.99 C 787.65 213.92 787.62 205.37 787.91 197.00 C 788.07 187.20 788.20 177.36 787.20 167.59 C 786.65 163.63 786.16 159.47 783.95 156.03 C 782.97 154.48 780.96 153.33 779.17 154.25 Z" />
<path fill="#030303" opacity="1.00" d=" M 860.73 118.81 C 861.31 117.25 861.37 115.15 863.27 114.54 C 863.53 124.99 863.40 135.45 863.34 145.91 C 866.80 146.01 870.28 146.02 873.76 146.03 C 873.72 149.00 873.72 151.97 873.78 154.94 C 870.29 154.99 866.81 154.99 863.33 155.10 C 863.54 175.03 863.26 194.96 863.48 214.90 C 863.42 217.93 864.26 220.90 866.03 223.38 C 870.07 222.35 870.79 217.84 872.86 214.84 C 874.07 217.25 872.88 219.80 872.17 222.14 C 870.66 226.14 868.70 230.58 864.55 232.43 C 861.52 233.81 857.83 232.76 855.80 230.20 C 852.08 225.69 850.67 219.70 850.57 213.97 C 850.24 194.31 850.47 174.65 850.39 155.00 C 848.50 155.00 846.63 155.00 844.76 155.00 C 844.75 154.23 844.72 152.68 844.70 151.91 C 851.93 141.92 857.26 130.63 860.73 118.81 Z" />
<path fill="#030303" opacity="1.00" d=" M 41.96 153.99 C 50.38 144.47 63.56 139.34 76.19 141.39 C 83.01 142.24 88.99 145.77 94.97 148.84 C 107.85 149.19 120.76 148.65 133.65 149.09 C 133.50 157.03 133.53 164.97 133.63 172.90 C 126.26 173.12 118.88 172.94 111.51 173.01 C 116.62 182.01 120.65 191.75 121.81 202.11 C 124.23 221.39 122.57 241.89 113.50 259.36 C 107.35 271.42 97.03 281.53 84.36 286.50 C 76.46 289.68 67.99 286.54 59.83 287.14 C 54.29 288.35 51.37 294.06 49.80 299.03 C 47.89 306.04 47.66 314.09 51.34 320.58 C 53.42 324.40 57.80 326.38 62.04 326.35 C 75.39 326.50 88.90 324.90 102.12 327.50 C 109.08 328.87 116.18 331.55 121.00 336.99 C 129.28 345.87 132.65 358.14 133.60 369.98 C 135.11 388.42 131.94 407.91 121.39 423.44 C 113.09 435.86 98.34 442.32 83.95 444.35 C 68.10 446.27 51.16 444.09 37.44 435.52 C 21.47 425.50 16.97 402.27 26.25 386.28 C 29.66 380.54 35.46 376.78 41.31 373.89 C 34.99 367.74 29.80 360.24 27.62 351.59 C 23.32 335.33 25.83 317.54 33.83 302.81 C 38.40 294.46 45.10 287.43 52.73 281.81 C 43.90 275.90 36.12 268.18 31.19 258.69 C 23.00 242.86 20.81 224.60 21.69 207.00 C 22.73 187.86 29.02 168.43 41.96 153.99 M 70.38 155.58 C 67.44 156.74 65.40 159.33 63.83 161.97 C 59.77 168.64 58.62 176.52 57.72 184.14 C 56.26 198.05 56.14 212.06 56.30 226.03 C 56.60 236.60 57.01 247.28 59.59 257.58 C 61.08 262.76 63.25 268.04 67.26 271.79 C 70.35 274.79 75.53 274.49 78.65 271.70 C 82.62 268.24 84.86 263.20 86.33 258.24 C 88.87 248.52 89.35 238.42 89.73 228.43 C 90.06 213.27 89.98 198.04 88.25 182.96 C 87.12 174.95 86.03 166.47 81.38 159.63 C 79.09 156.12 74.44 153.97 70.38 155.58 M 57.48 379.60 C 52.12 379.96 47.44 383.34 45.20 388.19 C 39.74 398.98 42.24 412.83 50.25 421.70 C 54.77 426.68 61.61 428.60 68.07 429.42 C 78.25 430.54 89.06 430.16 98.40 425.52 C 105.46 422.07 111.08 415.56 112.78 407.82 C 114.55 400.28 114.43 391.17 108.40 385.48 C 102.81 379.81 94.31 380.07 86.96 379.49 C 77.15 379.21 67.27 378.53 57.48 379.60 Z" />
<path fill="#030303" opacity="1.00" d=" M 173.89 156.02 C 179.64 148.83 187.46 142.60 196.83 141.29 C 203.98 140.05 211.45 142.30 216.98 146.93 C 225.08 153.63 230.37 163.08 234.42 172.64 C 242.95 194.34 244.73 217.96 245.37 241.06 C 224.26 241.07 203.16 241.06 182.05 241.06 C 182.76 261.40 184.90 282.15 192.88 301.07 C 196.24 308.65 200.53 316.79 208.33 320.56 C 214.72 323.71 222.55 321.25 227.04 316.02 C 233.85 308.32 237.34 298.42 241.12 289.02 C 242.58 290.64 244.01 292.29 245.39 293.99 C 241.56 307.19 237.23 320.39 230.52 332.44 C 225.82 340.74 219.31 348.53 210.44 352.49 C 199.69 357.23 186.46 355.16 177.39 347.81 C 165.02 337.66 159.19 321.96 155.03 306.99 C 149.80 287.15 148.55 266.49 148.77 246.05 C 149.10 228.14 150.85 210.13 155.74 192.86 C 159.51 179.64 165.30 166.83 173.89 156.02 M 194.57 157.66 C 190.72 160.84 189.04 165.79 187.46 170.36 C 181.78 188.30 181.27 207.34 181.46 226.00 C 192.62 225.99 203.78 226.00 214.93 226.00 C 214.76 211.69 214.85 197.34 213.31 183.10 C 212.19 174.88 210.54 166.31 205.68 159.39 C 203.32 155.81 197.90 154.92 194.57 157.66 Z" />
<path fill="#030303" opacity="1.00" d=" M 327.00 146.04 C 333.03 141.29 341.50 139.52 348.76 142.32 C 354.67 144.57 358.90 149.68 361.94 155.03 C 368.22 165.95 370.39 178.67 371.04 191.10 C 371.97 208.38 371.83 225.70 371.88 243.00 C 371.91 265.67 371.82 288.33 371.93 310.99 C 372.14 318.32 372.02 325.81 373.97 332.93 C 375.28 337.59 379.90 340.01 384.28 341.08 C 384.31 343.73 384.32 346.39 384.31 349.06 C 364.81 349.07 345.31 349.06 325.82 349.06 C 325.80 346.41 325.80 343.76 325.86 341.11 C 331.67 339.44 335.26 333.80 336.01 328.04 C 337.25 319.42 337.06 310.67 337.18 301.99 C 337.12 268.67 337.32 235.36 337.06 202.05 C 336.67 193.81 337.32 185.23 334.34 177.38 C 333.12 174.41 331.19 171.30 327.98 170.25 C 324.26 169.35 320.75 171.73 318.39 174.38 C 314.33 178.98 311.78 184.66 309.52 190.31 C 308.28 193.76 306.55 197.21 306.73 200.98 C 306.79 229.30 306.74 257.62 306.75 285.95 C 306.84 298.30 306.46 310.68 307.34 323.02 C 307.84 327.74 308.02 332.96 311.14 336.83 C 312.84 339.09 315.55 340.11 318.09 341.10 C 318.13 343.75 318.13 346.40 318.12 349.06 C 298.62 349.07 279.13 349.07 259.63 349.06 C 259.60 346.38 259.61 343.71 259.70 341.05 C 264.83 339.99 269.40 336.17 270.56 330.94 C 272.19 322.73 271.90 314.29 272.08 305.95 C 272.17 268.30 272.11 230.65 272.11 193.00 C 271.85 183.29 272.37 173.41 270.16 163.88 C 269.01 158.96 264.30 156.14 259.72 154.99 C 259.61 152.31 259.59 149.62 259.63 146.94 C 275.35 146.98 291.06 146.83 306.78 147.02 C 306.78 155.68 306.65 164.34 306.85 173.00 C 312.77 163.51 317.91 153.01 327.00 146.04 Z" />
<path fill="#030303" opacity="1.00" d=" M 722.57 152.55 C 725.17 148.11 729.49 143.52 735.10 144.01 C 739.89 144.62 742.81 149.02 744.88 152.95 C 749.99 163.12 750.54 174.79 750.94 185.95 C 743.01 186.07 735.08 185.94 727.15 186.03 C 727.49 194.82 728.36 203.87 732.16 211.92 C 733.56 214.64 735.64 217.63 738.94 218.03 C 740.83 218.33 742.53 217.13 743.77 215.84 C 746.68 212.52 747.84 208.15 749.32 204.09 C 749.68 204.56 750.41 205.51 750.77 205.98 C 749.81 211.72 747.85 217.30 745.54 222.63 C 743.36 227.37 739.67 232.40 734.08 233.01 C 728.17 233.59 723.34 228.97 720.89 224.04 C 716.30 214.74 715.12 204.21 714.66 193.98 C 714.41 179.91 715.31 164.99 722.57 152.55 M 729.90 154.01 C 727.04 162.34 726.97 171.28 727.00 180.00 C 731.18 180.00 735.36 180.00 739.54 180.00 C 739.22 171.69 739.82 163.17 737.63 155.06 C 736.90 153.15 736.27 150.50 733.99 149.95 C 731.68 149.79 730.52 152.18 729.90 154.01 Z" />
<path fill="#030303" opacity="1.00" d=" M 815.72 147.66 C 818.51 143.95 824.46 142.54 828.09 145.89 C 829.67 146.84 830.81 149.31 832.88 148.92 C 833.98 147.35 834.49 145.47 835.18 143.70 C 835.52 143.87 836.19 144.22 836.53 144.39 C 836.95 154.38 837.18 164.40 837.24 174.40 C 836.85 174.20 836.09 173.79 835.71 173.59 C 833.70 166.52 832.88 158.71 828.25 152.72 C 826.82 150.92 823.93 148.75 821.82 150.79 C 818.28 154.58 818.63 160.71 821.12 164.98 C 826.50 174.49 835.09 182.26 838.07 193.05 C 840.49 202.47 839.94 212.61 836.89 221.83 C 835.38 226.29 832.63 230.87 828.04 232.63 C 824.16 234.04 820.54 231.50 817.55 229.35 C 816.55 228.87 815.39 227.38 814.26 228.39 C 813.16 230.00 813.48 232.89 811.12 233.25 C 810.82 223.05 810.48 212.85 810.45 202.64 L 811.82 203.30 C 813.73 210.92 815.13 219.34 820.88 225.19 C 822.49 227.08 825.78 227.91 827.40 225.57 C 830.35 221.27 830.08 215.43 828.32 210.72 C 825.11 203.66 819.41 198.15 815.63 191.42 C 809.83 182.49 808.71 171.28 810.45 160.97 C 811.35 156.28 812.79 151.51 815.72 147.66 Z" />
<path fill="#030303" opacity="1.00" d=" M 896.12 144.22 C 900.89 143.09 905.73 145.60 908.76 149.20 C 915.19 156.59 917.12 166.61 918.39 176.03 C 919.82 190.43 919.40 205.46 914.15 219.10 C 912.16 223.98 909.35 228.97 904.57 231.58 C 900.48 233.83 895.17 233.43 891.40 230.71 C 887.54 227.96 885.26 223.62 883.55 219.32 C 878.93 207.50 877.90 194.59 878.62 182.01 C 879.23 172.49 881.08 162.90 885.23 154.25 C 887.44 149.76 891.00 145.35 896.12 144.22 M 897.27 150.41 C 893.30 153.43 893.44 159.04 892.78 163.51 C 892.05 176.98 891.83 190.50 892.17 203.98 C 892.52 210.17 892.25 216.57 894.34 222.50 C 895.20 224.77 897.01 227.78 899.92 226.93 C 903.41 224.57 904.06 219.98 904.54 216.12 C 905.57 203.78 905.46 191.39 905.52 179.02 C 905.21 170.69 905.77 162.08 903.09 154.06 C 902.40 151.71 899.93 148.78 897.27 150.41 Z" />
<path fill="#030303" opacity="1.00" d=" M 955.05 144.94 C 957.42 143.04 961.08 144.14 962.14 146.96 C 964.18 151.67 963.89 157.07 963.08 162.03 C 962.46 164.78 960.68 168.98 957.14 167.84 C 954.54 166.26 953.38 163.26 951.82 160.79 C 948.14 161.41 947.31 165.63 946.39 168.63 C 943.02 184.19 944.67 200.22 944.26 216.01 C 944.18 220.57 943.93 227.61 949.98 228.26 C 949.99 228.94 950.00 230.31 950.01 231.00 C 942.17 231.01 934.34 230.99 926.50 231.01 C 926.54 230.31 926.62 228.91 926.65 228.20 C 928.20 227.39 930.00 226.46 930.40 224.57 C 931.23 220.77 931.19 216.85 931.27 212.99 C 931.24 195.02 931.31 177.05 931.24 159.09 C 931.11 155.29 931.12 150.09 926.62 148.82 C 926.59 148.11 926.54 146.70 926.51 145.99 C 932.42 146.00 938.34 146.00 944.26 146.00 C 944.31 152.07 944.17 158.15 944.33 164.22 C 947.48 157.63 948.91 149.58 955.05 144.94 Z" />
<path fill="#030303" opacity="1.00" d=" M 976.64 149.54 C 979.23 146.10 983.46 143.20 987.95 144.16 C 992.59 145.28 995.22 149.74 997.25 153.69 C 1002.00 163.72 1002.57 175.06 1002.93 185.97 C 995.01 186.05 987.08 185.96 979.16 186.02 C 979.46 194.58 980.33 203.34 983.84 211.25 C 985.25 214.22 987.36 217.55 990.92 218.03 C 993.12 218.35 995.01 216.79 996.31 215.19 C 998.83 211.93 999.94 207.89 1001.33 204.07 C 1001.69 204.56 1002.42 205.53 1002.78 206.01 C 1002.05 210.73 1000.41 215.27 998.78 219.74 C 996.77 224.80 993.91 230.28 988.57 232.43 C 983.91 234.22 978.66 231.95 975.68 228.23 C 971.64 223.33 969.90 217.03 968.54 210.95 C 966.21 198.83 966.03 186.34 967.60 174.11 C 968.80 165.43 971.30 156.63 976.64 149.54 M 981.60 154.89 C 979.06 162.99 978.96 171.58 979.00 180.00 C 983.17 180.00 987.35 180.00 991.54 180.00 C 991.19 171.45 991.89 162.66 989.40 154.37 C 988.67 152.44 987.60 149.41 984.96 150.03 C 982.94 150.79 982.22 153.05 981.60 154.89 Z" />
<path fill="#030303" opacity="1.00" d=" M 642.59 146.00 C 649.95 146.05 657.31 145.89 664.68 146.10 C 664.68 146.70 664.68 147.89 664.68 148.48 C 663.62 149.09 662.34 149.42 661.52 150.36 C 660.09 152.77 661.11 155.62 661.42 158.19 C 663.71 170.52 666.18 182.81 668.50 195.13 C 670.91 184.49 672.74 173.69 674.57 162.94 C 673.70 158.02 673.62 151.57 668.70 148.80 C 668.67 148.10 668.62 146.69 668.59 145.99 C 676.02 146.02 683.45 145.98 690.88 146.02 C 690.88 146.68 690.89 147.99 690.89 148.65 C 689.63 149.33 687.80 149.46 687.19 150.95 C 686.45 153.78 687.16 156.70 687.59 159.51 C 689.84 171.42 691.93 183.37 694.30 195.25 C 696.28 185.58 697.87 175.83 699.72 166.13 C 700.49 161.50 701.67 156.73 700.59 152.06 C 700.05 149.39 695.76 149.26 696.60 146.01 C 700.97 146.00 705.35 145.93 709.72 146.11 C 709.69 146.73 709.61 147.96 709.57 148.58 C 705.19 151.15 704.94 156.58 703.91 161.01 C 699.54 185.00 695.21 208.99 690.87 232.98 C 690.20 232.99 688.85 233.00 688.18 233.01 C 684.30 212.60 680.30 192.21 676.45 171.79 C 672.09 192.08 668.62 212.58 664.73 232.98 C 664.10 232.97 662.84 232.94 662.21 232.92 C 657.91 209.91 653.59 186.89 649.18 163.90 C 647.91 159.14 647.65 153.63 644.04 149.92 C 642.84 148.95 642.61 147.45 642.59 146.00 Z" />
<path fill="#030303" opacity="1.00" d=" M 398.10 225.02 C 422.15 224.97 446.20 225.01 470.25 225.01 C 470.25 240.02 470.26 255.04 470.24 270.06 C 446.20 270.06 422.16 270.08 398.12 270.04 C 398.11 255.04 398.14 240.03 398.10 225.02 Z" />
<path fill="#030303" opacity="1.00" d=" M 656.03 258.01 C 689.73 258.00 723.44 258.12 757.14 257.95 C 757.40 259.68 756.95 261.36 756.51 263.02 C 755.57 267.93 755.07 272.91 753.93 277.79 C 752.60 282.61 750.34 287.10 749.35 292.02 C 737.18 322.93 708.54 345.76 676.67 353.85 C 669.91 355.59 662.99 357.02 655.97 356.76 C 656.11 323.84 655.98 290.93 656.03 258.01 Z" />
</g>
<g id="#d9d9d9ef">
<path fill="#d9d9d9" opacity="0.94" d=" M 753.93 277.79 C 755.07 272.91 755.57 267.93 756.51 263.02 C 756.51 266.80 755.96 270.54 754.96 274.17 C 754.00 281.57 750.88 288.50 748.28 295.45 C 746.16 301.30 742.37 306.24 739.72 311.82 C 738.87 314.16 738.11 316.66 736.35 318.50 C 734.75 320.08 732.15 320.28 730.83 322.19 C 730.08 323.44 729.59 324.81 729.05 326.16 C 728.08 326.32 727.11 326.47 726.15 326.63 C 723.46 328.53 723.82 332.65 720.47 333.77 C 717.84 334.95 717.04 337.83 715.99 340.24 C 715.22 340.10 713.68 339.83 712.91 339.69 C 708.62 340.33 706.57 344.33 704.16 347.42 C 701.85 346.23 698.49 345.43 696.48 347.52 C 694.45 349.59 691.84 350.88 689.39 352.36 C 687.25 352.74 685.03 352.32 682.88 352.42 C 681.76 353.46 680.71 354.57 679.51 355.51 C 677.70 355.78 675.85 355.52 674.04 355.62 C 671.87 357.63 668.40 355.47 666.08 357.33 C 662.70 357.72 659.24 357.82 655.97 356.76 C 662.99 357.02 669.91 355.59 676.67 353.85 C 708.54 345.76 737.18 322.93 749.35 292.02 C 750.34 287.10 752.60 282.61 753.93 277.79 Z" />
</g>
<g id="#c9c9c9c9">
<path fill="#c9c9c9" opacity="0.79" d=" M 730.07 347.67 C 731.51 344.41 735.53 343.92 738.64 343.40 C 738.55 344.28 738.46 345.16 738.39 346.05 C 735.33 346.45 732.54 347.79 729.57 348.48 C 728.81 348.96 728.09 349.48 727.38 350.02 C 727.81 349.43 728.66 348.25 729.08 347.66 C 729.33 347.66 729.83 347.66 730.07 347.67 Z" />
<path fill="#c9c9c9" opacity="0.79" d=" M 739.27 364.31 C 740.20 363.80 742.61 364.14 741.62 365.68 C 740.49 367.97 736.11 365.39 739.27 364.31 Z" />
</g>
<g id="#ffffffff">
<path fill="#ffffff" opacity="1.00" d=" M 768.38 351.09 C 768.66 350.02 768.98 348.95 769.30 347.90 C 771.07 353.89 768.20 360.09 770.04 366.08 C 769.15 365.96 768.28 365.84 767.42 365.74 C 770.11 362.76 770.38 356.31 766.69 354.03 C 767.24 353.04 767.79 352.06 768.38 351.09 Z" />
</g>
</svg>
