<?xml version="1.0" encoding="UTF-8" ?>
<!DOCTYPE svg PUBLIC "-//W3C//DTD SVG 1.1//EN" "http://www.w3.org/Graphics/SVG/1.1/DTD/svg11.dtd">
<svg width="1500pt" height="500pt" viewBox="0 0 1500 500" version="1.1" xmlns="http://www.w3.org/2000/svg">
<g id="#ffffffff">
<path fill="#ffffff" opacity="1.00" d=" M 0.00 0.00 L 1500.00 0.00 L 1500.00 500.00 L 0.00 500.00 L 0.00 0.00 M 721.64 27.64 C 721.63 30.72 721.63 33.80 721.63 36.88 C 728.29 37.13 735.51 38.64 740.21 43.75 C 746.35 50.35 750.25 58.59 754.69 66.33 C 756.14 68.62 755.53 71.45 755.66 74.01 C 755.60 153.68 755.68 233.35 755.62 313.02 C 754.93 324.19 754.13 336.17 747.77 345.77 C 741.93 354.26 731.00 356.52 721.35 356.93 C 721.41 359.98 721.41 363.03 721.37 366.08 C 748.79 366.22 776.22 366.24 803.64 366.07 C 803.59 363.02 803.58 359.96 803.62 356.92 C 791.42 358.24 778.75 351.81 773.54 340.55 C 767.74 327.20 768.20 312.26 768.17 298.00 C 768.20 229.32 768.12 160.64 768.21 91.96 C 820.64 185.91 872.81 280.00 925.14 374.00 C 927.08 374.00 929.03 373.99 931.00 374.00 C 931.00 279.67 931.00 185.34 931.00 91.01 C 931.84 74.70 929.45 54.08 943.57 42.58 C 948.98 39.36 955.26 38.12 961.36 36.85 C 961.36 33.78 961.36 30.71 961.36 27.64 C 935.79 27.64 910.21 27.64 884.64 27.64 C 884.63 30.75 884.63 33.85 884.64 36.96 C 896.20 35.83 908.52 41.73 913.11 52.74 C 918.37 66.13 917.96 80.85 918.00 95.00 C 917.98 142.18 918.04 189.36 917.97 236.54 C 879.90 166.93 841.94 97.26 803.89 27.64 C 776.47 27.63 749.06 27.64 721.64 27.64 M 1100.82 120.00 C 1100.83 120.68 1100.84 122.04 1100.84 122.71 C 1105.70 122.84 1108.25 127.50 1107.88 131.93 C 1108.14 172.05 1107.83 212.17 1108.04 252.29 C 1113.10 250.91 1116.13 246.01 1120.20 242.96 C 1126.39 252.36 1140.04 254.90 1148.98 247.92 C 1161.79 237.86 1165.24 220.39 1166.14 204.98 C 1166.46 192.53 1165.10 179.41 1158.54 168.54 C 1154.89 162.60 1148.43 157.22 1141.05 158.18 C 1134.34 159.00 1129.71 164.48 1126.00 169.61 C 1125.99 153.07 1126.01 136.53 1126.00 119.99 C 1117.60 119.97 1109.21 119.95 1100.82 120.00 M 130.95 130.93 C 106.52 142.94 92.36 169.77 89.03 195.98 C 86.47 220.59 90.05 247.35 105.67 267.34 C 112.65 276.05 121.61 282.95 131.38 288.27 C 109.97 300.79 94.07 323.69 93.97 349.00 C 93.10 366.68 101.36 384.35 115.91 394.54 C 106.71 398.22 97.10 403.34 92.47 412.58 C 83.26 429.61 89.71 452.67 106.05 462.88 C 124.09 474.11 146.11 476.89 166.98 476.19 C 184.47 475.31 202.25 470.81 216.81 460.80 C 235.65 446.56 244.41 422.07 244.03 399.01 C 244.00 382.63 239.88 365.02 227.61 353.38 C 220.42 345.81 210.00 342.68 199.99 341.01 C 181.12 337.98 161.96 340.06 142.97 339.68 C 135.86 339.54 129.01 335.07 126.95 328.11 C 123.01 316.05 127.17 298.79 140.46 294.64 C 151.38 293.64 162.54 297.23 173.36 294.35 C 182.53 291.88 190.97 287.15 198.55 281.50 C 219.34 265.61 229.30 238.67 228.37 213.00 C 229.02 195.17 223.49 177.45 213.07 163.00 C 223.10 162.99 233.13 163.01 243.16 162.99 C 243.13 153.78 243.27 144.58 243.08 135.37 C 226.39 135.46 209.69 135.35 193.00 135.43 C 188.73 135.89 185.51 132.58 181.73 131.23 C 165.90 123.81 146.83 123.57 130.95 130.93 M 293.35 148.43 C 272.65 173.74 265.33 207.05 263.81 239.02 C 262.69 270.24 264.82 302.47 277.44 331.45 C 283.08 344.42 291.22 356.87 303.18 364.80 C 316.73 373.64 334.61 375.67 349.71 369.78 C 361.21 365.25 370.39 356.24 377.08 346.02 C 385.91 332.48 391.89 317.34 397.09 302.11 C 395.17 300.18 393.24 298.27 391.24 296.44 C 384.75 309.83 378.71 325.53 364.73 332.77 C 352.70 338.75 338.41 332.11 331.33 321.65 C 314.71 298.39 310.84 268.86 309.53 241.02 C 338.74 240.97 367.96 241.02 397.18 240.99 C 396.01 212.09 393.32 181.88 378.86 156.18 C 370.22 141.21 356.43 126.34 337.99 125.63 C 320.20 124.27 303.94 134.90 293.35 148.43 M 511.61 130.58 C 498.96 138.08 490.47 150.55 482.39 162.48 C 482.33 152.54 482.38 142.59 482.36 132.64 C 460.71 132.63 439.06 132.65 417.40 132.63 C 417.39 135.69 417.39 138.75 417.41 141.81 C 423.36 142.91 430.04 145.80 432.00 152.07 C 434.21 159.48 434.17 167.33 434.62 174.99 C 434.66 221.32 434.63 267.66 434.64 314.00 C 434.69 324.01 434.63 334.10 432.94 343.99 C 431.64 351.45 424.51 356.30 417.38 357.33 C 417.40 360.24 417.40 363.16 417.37 366.08 C 444.36 366.29 471.36 366.12 498.35 366.17 C 498.36 363.21 498.36 360.25 498.37 357.30 C 492.64 356.19 486.97 352.70 485.19 346.85 C 482.64 338.17 482.84 328.98 482.38 320.01 C 482.37 277.00 482.30 233.99 482.42 190.99 C 485.71 181.21 490.90 171.61 498.39 164.36 C 503.06 159.70 511.56 156.96 516.84 162.18 C 524.76 169.88 524.14 181.82 524.67 192.00 C 525.04 229.66 524.73 267.33 524.83 305.00 C 524.69 317.67 525.46 330.48 523.12 343.00 C 521.66 350.03 516.03 356.05 508.86 357.30 C 508.82 360.25 508.82 363.20 508.84 366.16 C 535.89 366.18 562.94 366.17 589.99 366.16 C 590.00 363.20 590.00 360.25 589.98 357.29 C 584.41 356.26 578.11 353.98 575.80 348.30 C 572.64 339.56 573.40 330.09 572.67 320.97 C 572.27 277.99 573.16 234.99 572.15 192.02 C 571.55 172.01 568.20 150.29 553.74 135.26 C 543.15 123.81 524.60 122.72 511.61 130.58 M 1250.47 128.43 C 1244.95 142.56 1237.16 155.90 1226.50 166.80 C 1226.53 167.60 1226.59 169.21 1226.62 170.01 C 1229.25 170.01 1231.89 170.03 1234.54 170.05 C 1234.65 191.37 1234.21 212.69 1234.81 234.00 C 1235.34 242.45 1241.44 252.67 1251.02 251.93 C 1260.13 251.14 1264.62 241.85 1266.91 234.11 C 1266.45 233.64 1265.54 232.69 1265.09 232.22 C 1263.13 235.72 1261.17 241.53 1256.19 240.88 C 1252.82 238.90 1252.72 234.52 1252.55 231.07 C 1252.38 210.73 1252.54 190.39 1252.46 170.05 C 1257.30 170.01 1262.15 170.03 1267.01 170.01 C 1267.02 167.01 1267.02 164.00 1267.01 161.00 C 1262.15 161.00 1257.30 161.02 1252.46 160.97 C 1252.46 149.85 1252.55 138.74 1252.41 127.63 C 1251.93 127.83 1250.96 128.23 1250.47 128.43 M 1059.04 163.07 C 1048.60 172.62 1044.90 187.27 1044.34 200.95 C 1043.73 215.47 1045.02 231.20 1053.63 243.44 C 1059.12 251.43 1070.92 254.69 1079.29 249.29 C 1088.12 243.39 1091.51 232.66 1094.82 223.12 C 1094.31 222.61 1093.30 221.59 1092.79 221.08 C 1090.38 225.94 1088.31 231.50 1083.63 234.66 C 1079.27 237.47 1073.28 235.71 1070.21 231.79 C 1063.58 223.82 1062.10 213.05 1061.48 203.04 C 1072.60 203.00 1083.72 203.05 1094.84 203.01 C 1094.26 188.74 1092.76 172.58 1081.79 162.17 C 1075.52 156.08 1065.07 157.27 1059.04 163.07 M 1184.29 163.30 C 1176.26 173.60 1175.23 188.60 1180.70 200.30 C 1185.71 210.15 1194.91 216.83 1201.68 225.35 C 1205.57 230.07 1206.54 237.73 1202.73 242.75 C 1200.40 245.93 1195.62 245.43 1192.80 243.22 C 1186.15 238.56 1182.92 230.66 1180.84 223.09 C 1180.67 221.55 1179.72 220.69 1178.17 220.78 C 1178.71 231.27 1178.67 241.77 1179.28 252.26 C 1182.61 252.31 1181.72 246.93 1185.04 247.03 C 1190.02 248.67 1194.55 252.22 1200.04 251.97 C 1206.88 251.52 1212.51 246.36 1215.19 240.29 C 1219.83 229.80 1220.64 217.08 1215.29 206.69 C 1209.54 196.17 1199.22 189.29 1192.36 179.62 C 1189.19 175.37 1189.92 168.46 1194.51 165.53 C 1197.78 164.02 1201.43 165.85 1203.75 168.24 C 1209.29 173.62 1211.08 181.42 1213.61 188.44 C 1214.14 188.65 1215.20 189.09 1215.73 189.30 C 1215.29 178.78 1215.30 168.24 1214.73 157.73 C 1210.96 157.68 1211.01 165.48 1206.64 162.30 C 1200.36 156.66 1189.78 156.53 1184.29 163.30 M 1297.32 158.38 C 1289.34 159.61 1283.38 166.04 1280.00 173.00 C 1272.07 188.89 1271.03 207.72 1275.20 224.83 C 1277.69 233.49 1281.22 242.74 1288.83 248.19 C 1297.99 254.69 1311.80 252.52 1318.57 243.55 C 1331.24 226.81 1331.59 203.70 1327.03 184.01 C 1324.11 170.48 1312.72 155.64 1297.32 158.38 M 1377.54 160.60 C 1371.15 165.59 1368.56 173.58 1364.72 180.40 C 1364.46 173.94 1364.67 167.47 1364.59 161.00 C 1356.34 161.01 1348.10 160.98 1339.86 161.01 C 1339.87 161.69 1339.89 163.03 1339.90 163.71 C 1344.49 164.33 1346.66 168.74 1346.54 173.00 C 1346.82 193.34 1346.69 213.69 1346.61 234.04 C 1346.52 239.16 1346.41 246.39 1339.90 247.31 C 1339.89 247.98 1339.87 249.32 1339.86 249.99 C 1350.77 250.01 1361.68 250.12 1372.59 249.93 C 1372.59 249.27 1372.59 247.96 1372.60 247.30 C 1367.64 247.10 1364.28 242.83 1364.77 237.97 C 1364.91 220.71 1363.21 203.12 1367.11 186.14 C 1368.35 182.17 1369.90 176.29 1374.88 175.93 C 1378.11 178.02 1379.77 182.52 1384.03 182.94 C 1388.45 183.41 1390.89 178.59 1391.46 174.86 C 1392.20 169.75 1392.35 163.46 1388.33 159.59 C 1385.14 156.82 1380.50 158.21 1377.54 160.60 M 1411.04 163.07 C 1400.60 172.62 1396.90 187.27 1396.34 200.95 C 1395.73 215.47 1397.02 231.20 1405.63 243.44 C 1411.12 251.43 1422.92 254.69 1431.29 249.29 C 1440.12 243.39 1443.51 232.67 1446.82 223.13 C 1446.31 222.61 1445.30 221.59 1444.79 221.07 C 1442.37 225.94 1440.31 231.50 1435.62 234.66 C 1431.27 237.46 1425.29 235.71 1422.22 231.80 C 1415.58 223.82 1414.10 213.05 1413.48 203.04 C 1424.60 203.00 1435.72 203.05 1446.84 203.01 C 1446.26 188.74 1444.76 172.58 1433.79 162.18 C 1427.52 156.08 1417.07 157.27 1411.04 163.07 M 944.07 161.05 C 944.09 161.70 944.14 163.02 944.16 163.68 C 950.38 167.00 951.41 174.53 953.36 180.62 C 959.42 204.37 965.46 228.13 971.36 251.93 C 972.47 251.94 973.58 251.96 974.71 251.99 C 980.09 230.40 985.44 208.79 991.03 187.25 C 996.80 208.79 1002.09 230.45 1007.79 252.00 C 1008.65 252.01 1010.36 252.04 1011.22 252.05 C 1017.69 226.42 1023.67 200.65 1030.09 175.01 C 1031.20 170.47 1032.70 165.28 1037.64 163.59 C 1037.65 162.96 1037.66 161.70 1037.67 161.07 C 1031.68 160.94 1025.70 161.01 1019.72 161.01 C 1019.73 161.69 1019.75 163.04 1019.76 163.71 C 1024.96 164.10 1026.67 169.58 1025.56 174.01 C 1022.94 187.06 1019.43 199.93 1016.23 212.86 C 1012.60 198.61 1008.71 184.39 1005.79 169.98 C 1004.78 166.28 1007.86 163.87 1011.25 163.75 C 1011.25 163.06 1011.27 161.70 1011.27 161.01 C 1000.96 161.02 990.64 160.93 980.33 161.07 C 980.34 161.71 980.36 162.99 980.37 163.63 C 986.55 165.89 987.61 173.22 988.69 178.85 C 986.09 190.21 983.20 201.54 980.28 212.83 C 976.46 198.60 972.60 184.34 969.41 169.95 C 968.22 166.34 971.51 163.84 974.76 163.64 C 974.74 162.99 974.71 161.69 974.69 161.04 C 964.48 160.98 954.28 160.96 944.07 161.05 M 608.65 222.83 C 608.61 240.08 608.68 257.32 608.61 274.57 C 641.77 274.66 674.92 274.54 708.08 274.63 C 708.28 257.37 708.13 240.10 708.16 222.84 C 674.99 222.82 641.82 222.83 608.65 222.83 M 945.03 274.00 C 945.14 307.60 945.01 341.21 945.10 374.81 C 971.82 373.13 998.41 364.23 1019.62 347.63 C 1042.35 330.15 1058.07 302.96 1058.91 274.02 C 1020.95 273.98 982.99 274.01 945.03 274.00 Z" />
<path fill="#ffffff" opacity="1.00" d=" M 156.39 141.52 C 163.73 139.44 171.07 144.25 174.13 150.81 C 181.15 164.72 181.53 180.75 182.65 195.98 C 182.83 217.28 183.96 238.98 178.82 259.84 C 176.38 268.50 171.36 278.33 161.91 280.70 C 154.63 282.50 148.45 276.79 145.10 270.96 C 137.68 258.36 137.49 243.22 136.44 229.05 C 136.27 207.13 135.76 184.91 140.50 163.38 C 142.88 154.69 147.31 144.80 156.39 141.52 Z" />
<path fill="#ffffff" opacity="1.00" d=" M 319.08 154.05 C 321.69 148.02 326.64 141.21 334.06 141.96 C 341.96 141.93 345.79 150.23 348.45 156.44 C 356.16 178.04 354.30 201.46 355.00 224.00 C 339.67 224.00 324.33 224.00 309.00 224.00 C 308.65 200.43 309.33 175.93 319.08 154.05 Z" />
<path fill="#ffffff" opacity="1.00" d=" M 1066.43 167.42 C 1068.27 164.07 1073.64 164.25 1075.13 167.83 C 1079.77 176.41 1078.54 186.59 1078.89 195.99 C 1073.00 196.00 1067.12 196.02 1061.24 195.98 C 1061.32 186.34 1061.39 175.96 1066.43 167.42 Z" />
<path fill="#ffffff" opacity="1.00" d=" M 1299.23 165.34 C 1302.02 164.32 1305.41 165.44 1306.77 168.17 C 1310.37 174.44 1310.28 181.96 1310.65 188.98 C 1310.72 204.17 1311.10 219.43 1309.30 234.53 C 1308.65 239.49 1305.45 246.70 1299.22 244.70 C 1293.97 241.95 1293.16 235.30 1292.52 230.02 C 1291.32 213.36 1291.69 196.60 1292.79 179.96 C 1293.49 174.76 1293.87 167.97 1299.23 165.34 Z" />
<path fill="#ffffff" opacity="1.00" d=" M 1418.43 167.41 C 1420.27 164.07 1425.64 164.25 1427.13 167.83 C 1431.77 176.41 1430.54 186.59 1430.89 195.99 C 1425.00 196.00 1419.12 196.02 1413.24 195.98 C 1413.32 186.34 1413.39 175.96 1418.43 167.41 Z" />
<path fill="#ffffff" opacity="1.00" d=" M 1134.28 169.37 C 1138.59 167.65 1142.57 171.21 1143.85 175.11 C 1147.49 185.31 1146.89 196.35 1146.96 207.01 C 1146.68 218.04 1147.25 229.57 1142.95 239.98 C 1141.42 244.27 1135.93 246.46 1131.98 244.04 C 1127.55 240.96 1126.33 235.13 1126.15 230.06 C 1125.83 214.04 1126.10 198.02 1125.97 182.00 C 1125.24 176.50 1129.65 171.63 1134.28 169.37 Z" />
<path fill="#ffffff" opacity="1.00" d=" M 136.36 401.46 C 154.23 399.66 172.30 400.74 190.19 401.81 C 200.02 402.13 211.05 406.31 214.90 416.13 C 218.44 427.64 214.38 441.29 204.46 448.40 C 190.70 458.75 172.49 459.60 155.94 458.70 C 144.75 457.77 132.16 455.49 124.84 446.09 C 116.95 437.27 114.57 423.65 119.92 412.96 C 123.15 406.73 129.21 401.97 136.36 401.46 Z" />
</g>
<g id="#030303ff">
<path fill="#030303" opacity="1.00" d=" M 721.64 27.64 C 749.06 27.64 776.47 27.63 803.89 27.64 C 841.94 97.26 879.90 166.93 917.97 236.54 C 918.04 189.36 917.98 142.18 918.00 95.00 C 917.96 80.85 918.37 66.13 913.11 52.74 C 908.52 41.73 896.20 35.83 884.64 36.96 C 884.63 33.85 884.63 30.75 884.64 27.64 C 910.21 27.64 935.79 27.64 961.36 27.64 C 961.36 30.71 961.36 33.78 961.36 36.85 C 955.26 38.12 948.98 39.36 943.57 42.58 C 929.45 54.08 931.84 74.70 931.00 91.01 C 931.00 185.34 931.00 279.67 931.00 374.00 C 929.03 373.99 927.08 374.00 925.14 374.00 C 872.81 280.00 820.64 185.91 768.21 91.96 C 768.12 160.64 768.20 229.32 768.17 298.00 C 768.20 312.26 767.74 327.20 773.54 340.55 C 778.75 351.81 791.42 358.24 803.62 356.92 C 803.58 359.96 803.59 363.02 803.64 366.07 C 776.22 366.24 748.79 366.22 721.37 366.08 C 721.41 363.03 721.41 359.98 721.35 356.93 C 731.00 356.52 741.93 354.26 747.77 345.77 C 754.13 336.17 754.93 324.19 755.62 313.02 C 755.68 233.35 755.60 153.68 755.66 74.01 C 755.53 71.45 756.14 68.62 754.69 66.33 C 750.25 58.59 746.35 50.35 740.21 43.75 C 735.51 38.64 728.29 37.13 721.63 36.88 C 721.63 33.80 721.63 30.72 721.64 27.64 Z" />
<path fill="#030303" opacity="1.00" d=" M 1100.82 120.00 C 1109.21 119.95 1117.60 119.97 1126.00 119.99 C 1126.01 136.53 1125.99 153.07 1126.00 169.61 C 1129.71 164.48 1134.34 159.00 1141.05 158.18 C 1148.43 157.22 1154.89 162.60 1158.54 168.54 C 1165.10 179.41 1166.46 192.53 1166.14 204.98 C 1165.24 220.39 1161.79 237.86 1148.98 247.92 C 1140.04 254.90 1126.39 252.36 1120.20 242.96 C 1116.13 246.01 1113.10 250.91 1108.04 252.29 C 1107.83 212.17 1108.14 172.05 1107.88 131.93 C 1108.25 127.50 1105.70 122.84 1100.84 122.71 C 1100.84 122.04 1100.83 120.68 1100.82 120.00 M 1134.28 169.37 C 1129.65 171.63 1125.24 176.50 1125.97 182.00 C 1126.10 198.02 1125.83 214.04 1126.15 230.06 C 1126.33 235.13 1127.55 240.96 1131.98 244.04 C 1135.93 246.46 1141.42 244.27 1142.95 239.98 C 1147.25 229.57 1146.68 218.04 1146.96 207.01 C 1146.89 196.35 1147.49 185.31 1143.85 175.11 C 1142.57 171.21 1138.59 167.65 1134.28 169.37 Z" />
<path fill="#030303" opacity="1.00" d=" M 130.95 130.93 C 146.83 123.57 165.90 123.81 181.73 131.23 C 185.51 132.58 188.73 135.89 193.00 135.43 C 209.69 135.35 226.39 135.46 243.08 135.37 C 243.27 144.58 243.13 153.78 243.16 162.99 C 233.13 163.01 223.10 162.99 213.07 163.00 C 223.49 177.45 229.02 195.17 228.37 213.00 C 229.30 238.67 219.34 265.61 198.55 281.50 C 190.97 287.15 182.53 291.88 173.36 294.35 C 162.54 297.23 151.38 293.64 140.46 294.64 C 127.17 298.79 123.01 316.05 126.95 328.11 C 129.01 335.07 135.86 339.54 142.97 339.68 C 161.96 340.06 181.12 337.98 199.99 341.01 C 210.00 342.68 220.42 345.81 227.61 353.38 C 239.88 365.02 244.00 382.63 244.03 399.01 C 244.41 422.07 235.65 446.56 216.81 460.80 C 202.25 470.81 184.47 475.31 166.98 476.19 C 146.11 476.89 124.09 474.11 106.05 462.88 C 89.71 452.67 83.26 429.61 92.47 412.58 C 97.10 403.34 106.71 398.22 115.91 394.54 C 101.36 384.35 93.10 366.68 93.97 349.00 C 94.07 323.69 109.97 300.79 131.38 288.27 C 121.61 282.95 112.65 276.05 105.67 267.34 C 90.05 247.35 86.47 220.59 89.03 195.98 C 92.36 169.77 106.52 142.94 130.95 130.93 M 156.39 141.52 C 147.31 144.80 142.88 154.69 140.50 163.38 C 135.76 184.91 136.27 207.13 136.44 229.05 C 137.49 243.22 137.68 258.36 145.10 270.96 C 148.45 276.79 154.63 282.50 161.91 280.70 C 171.36 278.33 176.38 268.50 178.82 259.84 C 183.96 238.98 182.83 217.28 182.65 195.98 C 181.53 180.75 181.15 164.72 174.13 150.81 C 171.07 144.25 163.73 139.44 156.39 141.52 M 136.36 401.46 C 129.21 401.97 123.15 406.73 119.92 412.96 C 114.57 423.65 116.95 437.27 124.84 446.09 C 132.16 455.49 144.75 457.77 155.94 458.70 C 172.49 459.60 190.70 458.75 204.46 448.40 C 214.38 441.29 218.44 427.64 214.90 416.13 C 211.05 406.31 200.02 402.13 190.19 401.81 C 172.30 400.74 154.23 399.66 136.36 401.46 Z" />
<path fill="#030303" opacity="1.00" d=" M 293.35 148.43 C 303.94 134.90 320.20 124.27 337.99 125.63 C 356.43 126.34 370.22 141.21 378.86 156.18 C 393.32 181.88 396.01 212.09 397.18 240.99 C 367.96 241.02 338.74 240.97 309.53 241.02 C 310.84 268.86 314.71 298.39 331.33 321.65 C 338.41 332.11 352.70 338.75 364.73 332.77 C 378.71 325.53 384.75 309.83 391.24 296.44 C 393.24 298.27 395.17 300.18 397.09 302.11 C 391.89 317.34 385.91 332.48 377.08 346.02 C 370.39 356.24 361.21 365.25 349.71 369.78 C 334.61 375.67 316.73 373.64 303.18 364.80 C 291.22 356.87 283.08 344.42 277.44 331.45 C 264.82 302.47 262.69 270.24 263.81 239.02 C 265.33 207.05 272.65 173.74 293.35 148.43 M 319.08 154.05 C 309.33 175.93 308.65 200.43 309.00 224.00 C 324.33 224.00 339.67 224.00 355.00 224.00 C 354.30 201.46 356.16 178.04 348.45 156.44 C 345.79 150.23 341.96 141.93 334.06 141.96 C 326.64 141.21 321.69 148.02 319.08 154.05 Z" />
<path fill="#030303" opacity="1.00" d=" M 511.61 130.58 C 524.60 122.72 543.15 123.81 553.74 135.26 C 568.20 150.29 571.55 172.01 572.15 192.02 C 573.16 234.99 572.27 277.99 572.67 320.97 C 573.40 330.09 572.64 339.56 575.80 348.30 C 578.11 353.98 584.41 356.26 589.98 357.29 C 590.00 360.25 590.00 363.20 589.99 366.16 C 562.94 366.17 535.89 366.18 508.84 366.16 C 508.82 363.20 508.82 360.25 508.86 357.30 C 516.03 356.05 521.66 350.03 523.12 343.00 C 525.46 330.48 524.69 317.67 524.83 305.00 C 524.73 267.33 525.04 229.66 524.67 192.00 C 524.14 181.82 524.76 169.88 516.84 162.18 C 511.56 156.96 503.06 159.70 498.39 164.36 C 490.90 171.61 485.71 181.21 482.42 190.99 C 482.30 233.99 482.37 277.00 482.38 320.01 C 482.84 328.98 482.64 338.17 485.19 346.85 C 486.97 352.70 492.64 356.19 498.37 357.30 C 498.36 360.25 498.36 363.21 498.35 366.17 C 471.36 366.12 444.36 366.29 417.37 366.08 C 417.40 363.16 417.40 360.24 417.38 357.33 C 424.51 356.30 431.64 351.45 432.94 343.99 C 434.63 334.10 434.69 324.01 434.64 314.00 C 434.63 267.66 434.66 221.32 434.62 174.99 C 434.17 167.33 434.21 159.48 432.00 152.07 C 430.04 145.80 423.36 142.91 417.41 141.81 C 417.39 138.75 417.39 135.69 417.40 132.63 C 439.06 132.65 460.71 132.63 482.36 132.64 C 482.38 142.59 482.33 152.54 482.39 162.48 C 490.47 150.55 498.96 138.08 511.61 130.58 Z" />
<path fill="#030303" opacity="1.00" d=" M 1250.47 128.43 C 1250.96 128.23 1251.93 127.83 1252.41 127.63 C 1252.55 138.74 1252.46 149.85 1252.46 160.97 C 1257.30 161.02 1262.15 161.00 1267.01 161.00 C 1267.02 164.00 1267.02 167.01 1267.01 170.01 C 1262.15 170.03 1257.30 170.01 1252.46 170.05 C 1252.54 190.39 1252.38 210.73 1252.55 231.07 C 1252.72 234.52 1252.82 238.90 1256.19 240.88 C 1261.17 241.53 1263.13 235.72 1265.09 232.22 C 1265.54 232.69 1266.45 233.64 1266.91 234.11 C 1264.62 241.85 1260.13 251.14 1251.02 251.93 C 1241.44 252.67 1235.34 242.45 1234.81 234.00 C 1234.21 212.69 1234.65 191.37 1234.54 170.05 C 1231.89 170.03 1229.25 170.01 1226.62 170.01 C 1226.59 169.21 1226.53 167.60 1226.50 166.80 C 1237.16 155.90 1244.95 142.56 1250.47 128.43 Z" />
<path fill="#030303" opacity="1.00" d=" M 1059.04 163.07 C 1065.07 157.27 1075.52 156.08 1081.79 162.17 C 1092.76 172.58 1094.26 188.74 1094.84 203.01 C 1083.72 203.05 1072.60 203.00 1061.48 203.04 C 1062.10 213.05 1063.58 223.82 1070.21 231.79 C 1073.28 235.71 1079.27 237.47 1083.63 234.66 C 1088.31 231.50 1090.38 225.94 1092.79 221.08 C 1093.30 221.59 1094.31 222.61 1094.82 223.12 C 1091.51 232.66 1088.12 243.39 1079.29 249.29 C 1070.92 254.69 1059.12 251.43 1053.63 243.44 C 1045.02 231.20 1043.73 215.47 1044.34 200.95 C 1044.90 187.27 1048.60 172.62 1059.04 163.07 M 1066.43 167.42 C 1061.39 175.96 1061.32 186.34 1061.24 195.98 C 1067.12 196.02 1073.00 196.00 1078.89 195.99 C 1078.54 186.59 1079.77 176.41 1075.13 167.83 C 1073.64 164.25 1068.27 164.07 1066.43 167.42 Z" />
<path fill="#030303" opacity="1.00" d=" M 1184.29 163.30 C 1189.78 156.53 1200.36 156.66 1206.64 162.30 C 1211.01 165.48 1210.96 157.68 1214.73 157.73 C 1215.30 168.24 1215.29 178.78 1215.73 189.30 C 1215.20 189.09 1214.14 188.65 1213.61 188.44 C 1211.08 181.42 1209.29 173.62 1203.75 168.24 C 1201.43 165.85 1197.78 164.02 1194.51 165.53 C 1189.92 168.46 1189.19 175.37 1192.36 179.62 C 1199.22 189.29 1209.54 196.17 1215.29 206.69 C 1220.64 217.08 1219.83 229.80 1215.19 240.29 C 1212.51 246.36 1206.88 251.52 1200.04 251.97 C 1194.55 252.22 1190.02 248.67 1185.04 247.03 C 1181.72 246.93 1182.61 252.31 1179.28 252.26 C 1178.67 241.77 1178.71 231.27 1178.17 220.78 C 1179.72 220.69 1180.67 221.55 1180.84 223.09 C 1182.92 230.66 1186.15 238.56 1192.80 243.22 C 1195.62 245.43 1200.40 245.93 1202.73 242.75 C 1206.54 237.73 1205.57 230.07 1201.68 225.35 C 1194.91 216.83 1185.71 210.15 1180.70 200.30 C 1175.23 188.60 1176.26 173.60 1184.29 163.30 Z" />
<path fill="#030303" opacity="1.00" d=" M 1297.32 158.38 C 1312.72 155.64 1324.11 170.48 1327.03 184.01 C 1331.59 203.70 1331.24 226.81 1318.57 243.55 C 1311.80 252.52 1297.99 254.69 1288.83 248.19 C 1281.22 242.74 1277.69 233.49 1275.20 224.83 C 1271.03 207.72 1272.07 188.89 1280.00 173.00 C 1283.38 166.04 1289.34 159.61 1297.32 158.38 M 1299.23 165.34 C 1293.87 167.97 1293.49 174.76 1292.79 179.96 C 1291.69 196.60 1291.32 213.36 1292.52 230.02 C 1293.16 235.30 1293.97 241.95 1299.22 244.70 C 1305.45 246.70 1308.65 239.49 1309.30 234.53 C 1311.10 219.43 1310.72 204.17 1310.65 188.98 C 1310.28 181.96 1310.37 174.44 1306.77 168.17 C 1305.41 165.44 1302.02 164.32 1299.23 165.34 Z" />
<path fill="#030303" opacity="1.00" d=" M 1377.54 160.60 C 1380.50 158.21 1385.14 156.82 1388.33 159.59 C 1392.35 163.46 1392.20 169.75 1391.46 174.86 C 1390.89 178.59 1388.45 183.41 1384.03 182.94 C 1379.77 182.52 1378.11 178.02 1374.88 175.93 C 1369.90 176.29 1368.35 182.17 1367.11 186.14 C 1363.21 203.12 1364.91 220.71 1364.77 237.97 C 1364.28 242.83 1367.64 247.10 1372.60 247.30 C 1372.59 247.96 1372.59 249.27 1372.59 249.93 C 1361.68 250.12 1350.77 250.01 1339.86 249.99 C 1339.87 249.32 1339.89 247.98 1339.90 247.31 C 1346.41 246.39 1346.52 239.16 1346.61 234.04 C 1346.69 213.69 1346.82 193.34 1346.54 173.00 C 1346.66 168.74 1344.49 164.33 1339.90 163.71 C 1339.89 163.03 1339.87 161.69 1339.86 161.01 C 1348.10 160.98 1356.34 161.01 1364.59 161.00 C 1364.67 167.47 1364.46 173.94 1364.72 180.40 C 1368.56 173.58 1371.15 165.59 1377.54 160.60 Z" />
<path fill="#030303" opacity="1.00" d=" M 1411.04 163.07 C 1417.07 157.27 1427.52 156.08 1433.79 162.18 C 1444.76 172.58 1446.26 188.74 1446.84 203.01 C 1435.72 203.05 1424.60 203.00 1413.48 203.04 C 1414.10 213.05 1415.58 223.82 1422.22 231.80 C 1425.29 235.71 1431.27 237.46 1435.62 234.66 C 1440.31 231.50 1442.37 225.94 1444.79 221.07 C 1445.30 221.59 1446.31 222.61 1446.82 223.13 C 1443.51 232.67 1440.12 243.39 1431.29 249.29 C 1422.92 254.69 1411.12 251.43 1405.63 243.44 C 1397.02 231.20 1395.73 215.47 1396.34 200.95 C 1396.90 187.27 1400.60 172.62 1411.04 163.07 M 1418.43 167.41 C 1413.39 175.96 1413.32 186.34 1413.24 195.98 C 1419.12 196.02 1425.00 196.00 1430.89 195.99 C 1430.54 186.59 1431.77 176.41 1427.13 167.83 C 1425.64 164.25 1420.27 164.07 1418.43 167.41 Z" />
<path fill="#030303" opacity="1.00" d=" M 944.07 161.05 C 954.28 160.96 964.48 160.98 974.69 161.04 C 974.71 161.69 974.74 162.99 974.76 163.64 C 971.51 163.84 968.22 166.34 969.41 169.95 C 972.60 184.34 976.46 198.60 980.28 212.83 C 983.20 201.54 986.09 190.21 988.69 178.85 C 987.61 173.22 986.55 165.89 980.37 163.63 C 980.36 162.99 980.34 161.71 980.33 161.07 C 990.64 160.93 1000.96 161.02 1011.27 161.01 C 1011.27 161.70 1011.25 163.06 1011.25 163.75 C 1007.86 163.87 1004.78 166.28 1005.79 169.98 C 1008.71 184.39 1012.60 198.61 1016.23 212.86 C 1019.43 199.93 1022.94 187.06 1025.56 174.01 C 1026.67 169.58 1024.96 164.10 1019.76 163.71 C 1019.75 163.04 1019.73 161.69 1019.72 161.01 C 1025.70 161.01 1031.68 160.94 1037.67 161.07 C 1037.66 161.70 1037.65 162.96 1037.64 163.59 C 1032.70 165.28 1031.20 170.47 1030.09 175.01 C 1023.67 200.65 1017.69 226.42 1011.22 252.05 C 1010.36 252.04 1008.65 252.01 1007.79 252.00 C 1002.09 230.45 996.80 208.79 991.03 187.25 C 985.44 208.79 980.09 230.40 974.71 251.99 C 973.58 251.96 972.47 251.94 971.36 251.93 C 965.46 228.13 959.42 204.37 953.36 180.62 C 951.41 174.53 950.38 167.00 944.16 163.68 C 944.14 163.02 944.09 161.70 944.07 161.05 Z" />
<path fill="#030303" opacity="1.00" d=" M 608.65 222.83 C 641.82 222.83 674.99 222.82 708.16 222.84 C 708.13 240.10 708.28 257.37 708.08 274.63 C 674.92 274.54 641.77 274.66 608.61 274.57 C 608.68 257.32 608.61 240.08 608.65 222.83 Z" />
<path fill="#030303" opacity="1.00" d=" M 945.03 274.00 C 982.99 274.01 1020.95 273.98 1058.91 274.02 C 1058.07 302.96 1042.35 330.15 1019.62 347.63 C 998.41 364.23 971.82 373.13 945.10 374.81 C 945.01 341.21 945.14 307.60 945.03 274.00 Z" />
</g>
</svg>
